<?xml version="1.0" standalone="no"?>
<!DOCTYPE svg PUBLIC "-//W3C//DTD SVG 20010904//EN"
 "http://www.w3.org/TR/2001/REC-SVG-20010904/DTD/svg10.dtd">
<svg version="1.0" xmlns="http://www.w3.org/2000/svg"
 width="700.000000pt" height="700.000000pt" viewBox="0 0 700.000000 700.000000"
 preserveAspectRatio="xMidYMid meet">
<metadata>
Created by potrace 1.14, written by Peter Selinger 2001-2017
</metadata>
<g transform="translate(0.000000,700.000000) scale(0.100000,-0.100000)"
fill="#000000" stroke="none">
<path d="M3403 6862 c-50 -75 -172 -255 -270 -399 -98 -145 -385 -568 -638
-940 -253 -373 -536 -790 -630 -928 -93 -137 -223 -330 -290 -427 -66 -98
-193 -286 -282 -417 -90 -132 -163 -246 -163 -252 0 -7 6 -20 13 -28 8 -9 93
-133 189 -276 96 -143 223 -330 281 -415 58 -85 189 -279 292 -430 103 -151
269 -396 370 -545 101 -148 231 -340 288 -425 218 -322 546 -805 554 -815 5
-5 60 -86 123 -180 209 -311 242 -360 254 -372 8 -9 48 43 164 215 84 125 231
342 327 482 95 140 248 365 340 500 91 135 217 319 278 410 62 91 156 228 208
305 53 77 135 199 184 270 48 72 125 184 170 250 45 66 130 192 190 280 60 88
166 243 235 345 70 102 164 240 210 308 l83 123 -69 102 c-39 56 -195 287
-349 512 -153 226 -418 615 -588 865 -171 250 -368 541 -439 645 -173 254
-679 998 -820 1207 -62 92 -115 167 -118 167 -3 0 -46 -61 -97 -137z"/>
<path d="M5495 6754 c-194 -286 -302 -445 -390 -574 -113 -164 -350 -514 -358
-526 -3 -6 24 -56 61 -110 38 -55 122 -178 187 -274 65 -96 161 -238 214 -315
273 -401 317 -467 369 -547 32 -48 61 -86 66 -84 11 2 65 81 572 831 52 77
148 219 214 315 l118 174 -146 216 c-242 355 -362 532 -547 805 -96 143 -184
271 -194 284 l-18 24 -148 -219z"/>
<path d="M1225 2493 c-71 -103 -180 -264 -243 -358 -64 -93 -143 -210 -177
-260 -34 -49 -127 -187 -207 -305 l-145 -215 40 -60 c21 -33 101 -150 176
-260 74 -110 195 -288 268 -395 417 -615 415 -612 428 -598 7 7 61 85 120 173
103 152 170 251 358 528 46 67 123 181 172 252 49 72 121 177 160 235 39 58
74 110 78 116 3 6 -43 82 -103 170 -60 87 -192 283 -295 434 -418 617 -483
712 -492 721 -7 7 -52 -50 -138 -178z"/>
</g>
</svg>
