<?xml version="1.0" standalone="no"?>
<!DOCTYPE svg PUBLIC "-//W3C//DTD SVG 20010904//EN"
 "http://www.w3.org/TR/2001/REC-SVG-20010904/DTD/svg10.dtd">
<svg version="1.0" xmlns="http://www.w3.org/2000/svg"
 width="604.000000pt" height="604.000000pt" viewBox="0 0 604.000000 604.000000"
 preserveAspectRatio="xMidYMid meet">
<metadata>
Created by potrace 1.14, written by Peter Selinger 2001-2017
</metadata>
<g transform="translate(0.000000,604.000000) scale(0.100000,-0.100000)"
fill="#000000" stroke="none">
<path d="M2645 5314 c-16 -2 -115 -8 -220 -14 -271 -14 -313 -26 -560 -158
-109 -59 -222 -114 -250 -123 -77 -24 -297 -129 -326 -156 -14 -13 -46 -61
-72 -107 -32 -58 -67 -102 -110 -143 -35 -32 -69 -67 -75 -79 -6 -11 -18 -64
-26 -117 -17 -101 -44 -182 -77 -228 -41 -57 -62 -124 -75 -235 -7 -61 -31
-190 -53 -286 -45 -196 -61 -331 -61 -529 0 -248 31 -447 97 -629 19 -52 55
-153 80 -225 56 -159 71 -189 140 -285 70 -95 135 -231 165 -340 22 -80 23
-102 23 -405 0 -348 -3 -373 -62 -490 -19 -36 -27 -71 -30 -125 -6 -102 -29
-166 -134 -368 -95 -181 -124 -223 -174 -253 l-30 -19 72 0 c69 0 71 1 81 28
18 50 150 257 175 273 5 3 8 9 7 13 -1 6 23 73 61 171 6 17 13 41 15 54 2 13
6 31 10 40 4 9 8 28 10 43 2 15 20 107 40 205 32 158 37 200 42 375 3 129 0
230 -8 295 -7 54 -14 109 -15 123 -1 14 -5 32 -8 40 -3 8 -13 46 -22 84 -9 38
-23 82 -31 97 -8 16 -12 29 -8 29 3 0 -6 14 -21 31 -14 18 -24 38 -21 46 3 8
2 12 -3 9 -20 -13 -143 200 -175 304 -10 30 -24 69 -31 85 -41 93 -64 159 -58
168 3 5 2 7 -3 4 -13 -8 -69 146 -96 263 -18 81 -22 126 -22 310 0 185 3 241
27 400 46 307 66 421 88 495 22 74 71 179 95 202 14 15 16 19 34 116 6 31 16
57 21 57 6 0 7 5 4 11 -9 14 49 132 99 200 23 30 50 68 61 83 11 16 25 33 30
40 6 6 23 30 39 54 36 52 101 106 117 96 7 -4 9 -3 5 4 -4 6 19 18 60 32 36
11 96 35 132 53 37 17 69 32 72 33 43 12 171 75 300 148 145 83 181 91 470
111 235 17 471 18 580 5 41 -6 95 -12 120 -15 248 -27 584 -159 815 -319 44
-31 97 -67 118 -81 22 -15 35 -30 31 -37 -4 -6 -3 -8 3 -5 5 4 19 -3 31 -13
12 -11 24 -20 28 -20 3 0 49 -39 102 -87 53 -49 113 -103 134 -121 23 -22 35
-40 31 -50 -4 -13 -2 -14 4 -4 7 10 25 -3 71 -50 34 -34 62 -68 62 -75 0 -7 4
-13 9 -13 10 0 87 -122 83 -132 -1 -5 2 -8 7 -8 13 0 34 -57 25 -71 -4 -7 -3
-10 4 -5 21 13 98 -242 107 -359 7 -87 22 -171 35 -195 6 -12 9 -28 6 -36 -3
-8 -1 -12 4 -9 12 7 71 -110 100 -200 47 -147 62 -345 39 -500 -17 -112 -21
-306 -6 -323 6 -8 10 -16 8 -16 -3 -1 7 -19 22 -41 68 -102 104 -255 93 -388
-14 -167 -51 -285 -148 -475 -39 -75 -76 -147 -82 -159 -6 -13 -14 -23 -18
-23 -5 0 -8 -6 -8 -12 -1 -20 -87 -148 -95 -140 -3 4 -5 3 -4 -3 2 -5 -22 -62
-53 -125 -60 -123 -78 -186 -78 -279 0 -62 -3 -67 -141 -216 -10 -11 -44 -50
-74 -87 -53 -64 -65 -73 -90 -68 -5 1 -5 -4 2 -10 8 -9 3 -20 -25 -44 -19 -17
-39 -31 -43 -31 -4 0 -11 -4 -16 -9 -5 -5 -2 -6 7 -2 8 4 6 0 -5 -9 -26 -21
-185 -98 -250 -120 -30 -11 -88 -19 -145 -21 -52 -1 -134 -6 -181 -10 -102 -8
-242 3 -233 18 4 7 2 8 -5 4 -17 -11 -123 13 -115 26 4 7 2 8 -5 4 -16 -10
-122 24 -114 37 3 6 1 7 -5 3 -14 -8 -167 69 -197 99 -12 11 -25 22 -30 24 -6
2 -32 23 -58 47 -39 35 -47 47 -43 69 4 22 3 25 -10 15 -11 -10 -23 -4 -62 31
-26 24 -45 48 -44 54 2 5 0 7 -4 3 -3 -4 -34 16 -68 46 -33 29 -101 83 -151
121 -49 38 -101 79 -115 91 -14 12 -47 42 -75 66 -47 41 -174 168 -205 204
-52 62 -69 88 -63 97 3 5 2 7 -4 4 -12 -8 -76 90 -67 105 4 7 3 8 -4 4 -10 -6
-31 31 -87 159 -16 36 -55 163 -53 173 1 4 -2 14 -5 22 -28 67 -41 167 -41
313 -1 135 -3 160 -17 167 -33 19 -45 -10 -64 -155 -23 -180 -13 -255 45 -342
35 -53 39 -65 43 -138 2 -44 9 -92 16 -107 6 -16 16 -40 23 -55 6 -16 11 -31
10 -35 -1 -5 3 -8 9 -8 5 0 8 -4 5 -9 -4 -5 -3 -11 1 -13 5 -1 42 -46 84 -98
78 -97 302 -328 365 -376 26 -20 32 -29 22 -36 -10 -7 -9 -8 3 -6 10 2 65 -38
125 -89 163 -137 179 -153 176 -164 -1 -6 3 -7 9 -4 6 4 21 -2 33 -14 18 -17
154 -134 194 -166 6 -5 43 -40 80 -76 74 -73 111 -95 175 -108 65 -14 148 -47
139 -56 -4 -4 -1 -5 5 -1 7 4 49 0 94 -9 45 -8 135 -15 200 -15 106 0 121 -2
139 -20 19 -19 25 -48 21 -97 -2 -21 2 -23 48 -23 l49 0 -14 30 c-29 56 6 110
70 110 90 0 170 31 320 123 33 21 72 37 87 37 32 0 78 47 161 165 31 44 88
112 128 150 95 93 111 126 121 250 10 129 21 157 113 294 84 125 244 442 299
591 52 140 70 252 64 385 -6 128 -29 217 -87 335 -47 98 -49 132 -25 325 22
179 19 261 -15 426 -39 183 -52 224 -110 334 -43 84 -48 98 -58 205 -39 381
-233 709 -562 950 -125 92 -270 202 -370 280 -106 84 -196 134 -321 180 -105
39 -315 94 -434 114 -167 28 -447 43 -570 30z"/>
<path d="M4175 4711 c-3 -5 -2 -12 3 -15 5 -3 9 1 9 9 0 17 -3 19 -12 6z"/>
<path d="M4500 4396 c0 -2 8 -10 18 -17 15 -13 16 -12 3 4 -13 16 -21 21 -21
13z"/>
<path d="M2804 3626 c-43 -43 -46 -93 -9 -137 13 -16 26 -29 27 -27 8 6 57
-36 51 -45 -3 -5 -2 -7 4 -4 5 3 26 -9 47 -27 20 -19 42 -36 49 -39 6 -3 44
-31 82 -63 39 -33 88 -71 111 -87 22 -15 58 -43 80 -63 51 -48 118 -84 144
-77 37 10 70 60 70 108 l0 44 -112 86 c-164 124 -273 211 -356 283 -108 93
-136 100 -188 48z"/>
<path d="M4471 3620 c-28 -22 -53 -40 -55 -40 -3 0 -16 -10 -29 -22 -46 -45
-222 -183 -229 -180 -5 1 -8 -2 -8 -6 0 -11 -88 -84 -105 -86 -8 -1 -18 -6
-22 -11 -5 -4 -1 -4 7 0 13 8 13 6 1 -8 -7 -9 -16 -15 -20 -14 -3 2 -18 -10
-33 -25 -15 -15 -24 -28 -21 -28 3 0 1 -6 -5 -12 -7 -9 -6 -25 3 -52 8 -22 11
-44 8 -49 -3 -6 -1 -7 4 -4 6 4 16 0 23 -8 15 -18 63 -20 93 -3 25 13 209 152
275 208 13 11 28 17 33 14 5 -3 8 0 7 7 -2 6 22 30 53 53 31 23 82 62 114 88
32 26 62 45 65 43 4 -2 7 1 8 8 1 7 4 28 7 47 10 60 -42 120 -105 120 -10 0
-41 -18 -69 -40z"/>
<path d="M3075 3530 c10 -11 20 -20 23 -20 3 0 -3 9 -13 20 -10 11 -20 20 -23
20 -3 0 3 -9 13 -20z"/>
<path d="M2843 2879 c-84 -41 -112 -176 -53 -257 34 -47 94 -82 140 -82 41 0
103 33 129 67 11 15 25 33 30 39 5 6 9 43 8 82 -2 63 -5 74 -31 101 -17 17
-26 31 -20 31 5 0 -11 9 -35 20 -56 26 -115 25 -168 -1z"/>
<path d="M4430 2870 c-23 -5 -50 -25 -76 -54 -41 -44 -42 -48 -40 -108 3 -80
24 -120 81 -154 39 -22 54 -26 105 -22 107 8 160 66 160 177 0 81 -42 140
-115 160 -45 12 -65 12 -115 1z"/>
<path d="M2746 2807 c3 -10 9 -15 12 -12 3 3 0 11 -7 18 -10 9 -11 8 -5 -6z"/>
<path d="M3893 2615 c-42 -29 -39 -78 16 -272 27 -98 59 -212 70 -253 11 -41
33 -122 50 -179 17 -57 30 -106 29 -110 -1 -3 4 -18 10 -33 14 -34 38 -129 47
-185 l7 -43 -405 0 c-394 0 -405 -1 -431 -21 -21 -16 -26 -29 -26 -64 0 -52
23 -84 68 -93 18 -4 242 -5 498 -2 l466 5 19 24 c27 33 25 116 -5 221 -14 47
-66 234 -116 415 -152 545 -154 552 -177 579 -27 30 -85 36 -120 11z"/>
<path d="M4365 2551 c-3 -5 -2 -12 3 -15 5 -3 9 1 9 9 0 17 -3 19 -12 6z"/>
<path d="M1875 1226 c-15 -11 -15 -23 -6 -109 18 -163 14 -262 -15 -342 -38
-107 -39 -112 -14 -125 29 -16 57 -1 90 46 24 35 24 40 25 248 0 224 -8 279
-45 289 -10 3 -26 0 -35 -7z"/>
<path d="M3140 1005 c-7 -8 -17 -12 -23 -8 -5 3 -8 2 -4 -3 3 -5 2 -25 -2 -44
-9 -40 8 -83 38 -100 13 -6 220 -10 596 -10 l576 0 24 24 c13 13 25 22 28 20
2 -2 0 19 -3 47 -12 94 31 89 -636 89 -503 0 -583 -2 -594 -15z"/>
<path d="M2490 726 c0 -2 8 -10 18 -17 15 -13 16 -12 3 4 -13 16 -21 21 -21
13z"/>
<path d="M1773 234 c-54 -20 -124 -82 -174 -155 -21 -32 -47 -63 -57 -68 -13
-8 2 -10 56 -11 70 0 72 1 67 23 -9 38 83 113 187 152 48 18 62 34 52 60 -8
19 -74 19 -131 -1z"/>
</g>
</svg>
