<?xml version="1.0" encoding="UTF-8" standalone="no"?>
<svg
   viewBox="0 0 64 64"
   version="1.1"
   id="svg45"
   sodipodi:docname="favicon.svg"
   inkscape:version="1.1.2 (0a00cf5339, 2022-02-04, custom)"
   xmlns:inkscape="http://www.inkscape.org/namespaces/inkscape"
   xmlns:sodipodi="http://sodipodi.sourceforge.net/DTD/sodipodi-0.dtd"
   xmlns="http://www.w3.org/2000/svg"
   xmlns:svg="http://www.w3.org/2000/svg">
  <sodipodi:namedview
     id="namedview47"
     pagecolor="#505050"
     bordercolor="#ffffff"
     borderopacity="1"
     inkscape:pageshadow="0"
     inkscape:pageopacity="0"
     inkscape:pagecheckerboard="1"
     showgrid="false"
     inkscape:snap-object-midpoints="false"
     inkscape:snap-text-baseline="false"
     inkscape:zoom="18.517359"
     inkscape:cx="24.27452"
     inkscape:cy="34.508161"
     inkscape:window-width="2560"
     inkscape:window-height="1381"
     inkscape:window-x="1920"
     inkscape:window-y="0"
     inkscape:window-maximized="1"
     inkscape:current-layer="Layer_1" />
  <defs
     id="defs4">
    <style
       id="style2">.cls-1{isolation:isolate;}.cls-2,.cls-5{fill:#00d6b8;}.cls-3{fill:#00f2d7;}.cls-4{fill:#00ffe1;}.cls-5{mix-blend-mode:overlay;}.cls-6{fill:#0fe;}.cls-7{fill:#8cffe9;}</style>
  </defs>
  <g
     class="cls-1"
     id="g43">
    <g
       id="Layer_1"
       data-name="Layer 1">
      <path
         id="polygon36"
         style="fill:#00d7be"
         class="cls-4"
         d="m 51.61,0.26 v 0 l 8.25,12.15 -8.25,-12.15 -8.26,12.15 8.26,12.16 8.25,-12.16 z"
         sodipodi:nodetypes="cccccccc" />
      <path
         class="cls-2"
         d="M 32,0 10.28,32 32,64 v 0 L 53.76,32 Z"
         id="path16"
         style="fill:#00ad95;fill-opacity:1"
         sodipodi:nodetypes="cccccc" />
      <path
         class="cls-3"
         d="M 32,0 10.28,32 h 43.48 z"
         id="path30"
         style="fill:#00d7be;fill-opacity:1"
         sodipodi:nodetypes="cccc" />
      <path
         id="polygon6"
         style="fill:#00ad95"
         class="cls-2"
         d="m 4.14,51.63 v 0 l 8.25,12.15 8.26,-12.15 -8.26,-12.16 z"
         sodipodi:nodetypes="cccccc" />
      <polygon
         class="cls-3"
         points="20.65 51.63 12.39 39.47 4.14 51.63 20.65 51.63"
         id="polygon8"
         style="fill:#00d7be;fill-opacity:1" />
      <path
         class="cls-4"
         d="M50.52,32h0L38.37,49.88,47.09,32H25.66A83.67,83.67,0,0,0,32,64h0L53.76,32Z"
         id="path10"
         style="fill:#00d7be;fill-opacity:1" />
      <polygon
         class="cls-4"
         points="24.5 11.06 10.28 32 32.02 64 32.02 64 10.28 32 24.5 11.06"
         id="polygon12" />
      <polygon
         class="cls-2"
         points="32.02 64 32.02 64 32.02 64 32.02 64"
         id="polygon14" />
      <polygon
         class="cls-5"
         points="32.02 0 32.02 0 32.02 0 32.02 0 53.76 32 32.02 0 24.5 11.06 32.02 0 32.02 0"
         id="polygon18" />
      <path
         class="cls-6"
         d="M25.66,32H47.09L38.37,14.12,50.52,32h3.24L32,0A83.67,83.67,0,0,0,25.66,32Z"
         id="path20" />
      <polygon
         class="cls-4"
         points="32.02 0 32.02 0 24.5 11.06 10.28 32 32.02 0"
         id="polygon22" />
      <polygon
         class="cls-5"
         points="32.02 0 32.02 0 24.5 11.06 10.28 32 32.02 0"
         id="polygon24" />
      <rect
         class="cls-2"
         x="32.02"
         transform="translate(21.89 30.37) rotate(-71.57)"
         id="rect26" />
      <rect
         class="cls-5"
         x="32.02"
         transform="translate(21.89 30.37) rotate(-71.57)"
         id="rect28" />
      <rect
         class="cls-5"
         x="40.13"
         y="6.33"
         width="14.69"
         transform="translate(15.56 42.05) rotate(-55.81)"
         id="rect32" />
      <polygon
         class="cls-6"
         points="51.61 0.26 43.35 12.41 59.86 12.41 51.61 0.26"
         id="polygon34" />
      <polygon
         class="cls-7"
         points="47.09 32 38.37 49.88 50.52 32 50.52 32 47.09 32 47.09 32"
         id="polygon38" />
      <polygon
         class="cls-7"
         points="47.09 32 50.52 32 38.37 14.12 47.09 32"
         id="polygon40" />
    </g>
  </g>
</svg>
